<svg xmlns="http://www.w3.org/2000/svg" xml:space="preserve" id="Layer_1" x="0" y="0" version="1.1" viewBox="0 0 40 40"><style>.st2{fill:#d51224}</style><g id="vecto_medium"><path d="M20 3.2C10.7 3.2 3.2 10.7 3.2 20S10.7 36.8 20 36.8 36.8 29.3 36.8 20 29.3 3.2 20 3.2" style="fill:#fff"/><path d="M7.8 20H13v2.7H7.8zM19 12.1v15.3h-3V15.9c-.6.5-1.4.7-2.4.7H13V14h.6c.7 0 1.3-.2 1.7-.5.5-.3.8-.8 1-1.4zm11.4 8.7c.4.7.6 1.4.6 2.3 0 1.4-.5 2.5-1.4 3.3s-2.1 1.2-3.5 1.2-2.6-.4-3.5-1.2-1.4-1.9-1.4-3.3c0-.9.2-1.7.6-2.3.4-.7.9-1.2 1.6-1.5-.6-.3-1-.8-1.4-1.3-.3-.6-.5-1.2-.5-2 0-1.3.4-2.3 1.3-3s2-1.1 3.3-1.1 2.5.4 3.3 1.1c.9.7 1.3 1.7 1.3 3 0 .8-.2 1.4-.5 2s-.8 1-1.4 1.3c.7.3 1.2.8 1.6 1.5m-2.8 3.8c.4-.4.6-1 .6-1.7s-.2-1.3-.6-1.7q-.6-.6-1.5-.6c-.9 0-1.1.2-1.5.6s-.6 1-.6 1.7.2 1.3.6 1.7q.6.6 1.5.6c.9 0 1.2-.2 1.5-.6m-2.8-9.9c-.3.3-.5.8-.5 1.4s.2 1.1.5 1.5c.4.4.8.5 1.3.5s1-.2 1.3-.5c.4-.4.5-.8.5-1.4s-.2-1.1-.5-1.5c-.3-.3-.8-.5-1.4-.5-.4 0-.9.2-1.2.5" style="fill:#050505"/><path d="m6.8 8.1 1.3-1.3L33.3 32 32 33.3z" class="st2"/><path d="M20 1.5C9.8 1.5 1.5 9.8 1.5 20S9.8 38.5 20 38.5 38.5 30.2 38.5 20 30.2 1.5 20 1.5m0 34.1c-8.6 0-15.6-7-15.6-15.6S11.4 4.4 20 4.4s15.6 7 15.6 15.6-7 15.6-15.6 15.6" class="st2"/></g></svg>