<svg xmlns="http://www.w3.org/2000/svg" xml:space="preserve" id="Layer_1" x="0" y="0" version="1.1" viewBox="0 0 660 86"><style>.st0{fill:#fff}</style><path d="M231.9 49.1c0-6.5-3.3-10.3-9-10.3-3 0-5.8 1.3-8 3.3-1.5 1.4-2.5 2.9-3.5 4.7-1-5.2-3.7-7.8-8.8-7.8-7.1 0-10.3 5.2-12 7.8l-.3-7.3h-11V44h5.5v29.1h-5.5v4.5h16.2v-4.5H190V54.3c0-3.5 4.3-10.8 10-10.8 3.7 0 5.5 2 5.5 6.7v27.1h11v-4.5H211v-19c0-2.7 3.5-10.5 10.1-10.5 3.7 0 5.5 2.5 5.5 7.8v26.4h10.5V73h-5.2zM34.1 51.3c5.1-2.5 6.6-5.1 6.6-10 0-5.3-2.8-9.8-7.5-12.1-2.5-.9-5.6-1.2-14.1-1.2H0v8h3.8v33.3H0v8.1h26.3c9.5 0 16-5.5 16-13.8.6-5.6-3-10.5-8.2-12.3M14.1 36h9c4.5 0 7.8 2.5 7.8 5.8v.5c-.3 3.5-3.5 6-7 5.8h-9.8zm18.3 26.9c-.3 4-3.8 6.8-7.8 6.6H14.1V55.8l9.6-.2c5.2 0 8.8 2.7 8.8 7zm34-24c-10.5 0-18.3 8.2-18.3 19.8 0 11.5 7.8 19.8 18.3 19.8 9.1 0 15.8-5 17.6-13.3l-9.6.4c-1 3.3-4.3 5.8-7.8 5.5-1.7 0-8.1-.5-9-10.3h27.1c.3-5.1-1.2-9.8-3.8-14.1-3.2-5.1-8.8-7.8-14.5-7.8m-8.3 14.9c.7-4 4.2-7.3 8.5-7.3h.2c4 0 7.5 3.3 7.5 7.5zm110.8 19.3V52.4c0-9.6-6.5-13.1-14.2-13.1-3.5 0-7.3 1-10.1 3.3-2.3 2-3.8 4.8-4.3 7.8h5.9c.9-5 3.7-6.7 9-6.7 5.2 0 8.5 2.7 8.5 7v3.8l-3.5.2c-15 1.5-21.4 5-21.4 12.3v.7c.5 6.2 6 11.3 12.3 10.8 5.2 0 10.3-2.8 12.7-7.5v6.7h10.8l-.5-4.5zm-5-8.7c-.7 5.5-5.5 9.5-11 9.8-4 0-7.5-3-7.8-7.3 0-4.8 3.8-6.8 15.3-8.3l3.5-.5zm101.7-25.1c-6.5 0-10.7 5.5-12.2 8.3V25.8h-10.5v4.5h5v42.8h-5.2v4.5h10.8v-7.1c2.2 3 5.5 7.5 12.2 7.5 8.1 0 15.1-8.8 15.1-19.1-.1-10.9-6.7-19.6-15.2-19.6m-1.5 34.1c-6-.5-10.8-5.5-10.8-11.8l-.3-6.5c0-5.5 5.5-11.5 11.1-11.5 6.2 0 10.5 5.5 10.5 14.8s-3.9 15-10.5 15M115 57.3h11.8c0 1.2 0 2.8-.3 4-1.3 6.6-6.8 11.6-13.5 11.8-8.5 0-15-8.7-15-20.8 0-15.3 9-20.6 15-20.6 4 .3 8 2.3 10.5 5.5 1.3 1.7 2.3 3.8 2.8 6h5.5V27.4h-5.3v7.8c-3-5.2-8.5-8.8-14.8-8.5-11.3 0-20.3 11.5-20.3 26s9 25.8 20.5 25.8c4 0 8.1-1.5 11.3-4.3 1.5-1.5 2.8-3 3.7-4.7v7.8h5.5V52.8h-17.3zm365.1 13 .2-17.8c0-8.6-5.5-13.3-16-13.3-9 0-15 4.7-15.6 12.2l9 .3v-.3c.2-3.5 2-5.8 6.7-5.8s6.7 1.8 6.7 7.5c-12.1 1-24.6 2.3-24.6 13.3 0 6.8 5.8 11.8 13.3 11.8 4.5 0 8.8-1.7 11.5-5.2v4.5h11.8v-7.3zc0-.1 0 0 0 0m-8.7-6.9c-.2 4.6-3.9 8.2-8.5 8.2-3.8 0-6.3-2-6.3-5 0-5.2 5.8-5.9 14.5-6.7h.3zm134.2-11.9c-1.2 1.2-2 2-3.2 4.8v-6.1h-7.9v3.2h4v20.8h-3.9v3.1H607v-3.1h-4.6V61.6c0-.4.9-8 8.2-8 .7 0 1.5 0 2.9.3v-4c-1.4-.2-2.2-.3-2.9-.3-1.8 0-3.6.7-5 1.9m-26.3-1.8c-7.4 0-12.4 5.7-12.4 13.9 0 8.5 5 14.2 12.4 14.2s12.5-5.8 12.5-14.2c0-8-5.2-13.9-12.5-13.9m-.1 24.7c-4.9 0-7.9-3.9-7.9-10.7 0-6.6 3-10.7 7.9-10.7 5 0 8.2 4.1 8.2 10.5 0 6.8-3.1 10.9-8.2 10.9m55.5-19.5c-1.5-2.1-3.7-5.2-8.6-5.2-6.1 0-10.5 5.2-10.5 12.5 0 7.7 4.5 13 11 13 3 0 5.7-1.1 8.2-4.6v5.6c0 3.9-2.8 6.3-7.4 6.3-3.6 0-5.5-1.2-7.1-4.5h-4.4c.5 1.4.8 2 1.1 2.7 1.8 3.2 5.7 5.1 10.1 5.1 7.4 0 11.6-3.7 11.6-10.2V53.3h3.8v-3.2h-7.6v4.8zm0 10.1c0 3.2-3.6 7.1-7.5 7.1-4.6 0-7.4-3.6-7.4-9.6 0-5.9 2.8-9.5 7.1-9.5 4.2 0 7.8 4.2 7.8 7.2zm13-64.8c-6.7 0-12.2 5.5-12.2 12.2s5.5 12.3 12.2 12.3c6.8 0 12.3-5.5 12.3-12.3C660 5.8 654.5.2 647.7.2m0 22.6c-5.7 0-10.3-4.6-10.3-10.3s4.7-10.3 10.3-10.3c5.7 0 10.3 4.6 10.3 10.3s-4.6 10.3-10.3 10.3" class="st0"/><path d="M652.6 16.8v-2c0-.3-.1-.7-.1-.9-.1-.3-.2-.5-.3-.8-.1-.2-.3-.4-.5-.6-.3-.1-.5-.3-.9-.3.8-.2 1.4-.6 1.7-1.2s.5-1.3.5-2c0-1-.4-1.8-1-2.4-.7-.6-1.6-.9-2.8-.9h-6v12.6h1.7v-5.4h4.1c.4 0 .7 0 1 .2.3.1.5.3.6.5s.3.5.3.7c.1.3.1.6.2.9 0 .3.1.7.1.9.1.3.1.7.1.9v.7c0 .2.1.4.3.5h1.9c-.2-.2-.3-.4-.4-.7-.3-.2-.4-.4-.5-.7m-2.3-5.7c-.2.1-.6.3-.9.3-.4.1-.7.1-1.2.1h-3.5V7.2h4.2c.8 0 1.4.2 1.7.6s.5.9.5 1.5c0 .4-.1.8-.2 1.1-.2.3-.4.5-.6.7M558 72.7h4.7v4.6H558zM372.4 28h-12l-13.6 41.6H343v8h11.6l3.2-10.7h17.6l3.2 10.7h11.3v-8h-3.8zm-12.6 31.3 6.6-22.1 6.5 22.1zm-65.2-33.5h-10.7V30h5.2v43.1h-5.5v4.5h16v-4.5h-5zm25.8 13.5c-9.3 0-16.5 8.6-16.5 19.6 0 11.5 7.3 19.6 17.6 19.6 4.8 0 9.1-2 12.1-5.5 1.5-1.7 2.4-3.5 3-5.8l-6.3.2c-2 4.5-4.7 6.6-9 6.6-2.5 0-5-1-7-2.8-2.5-2.5-3.7-5.8-4.3-11.2h27.3c-.1-13.5-7.6-20.7-16.9-20.7M331 55.6h-20.9c0-1.2.5-2.5.8-3.8 1.3-4.5 5.3-7.8 10-8.1 2.3-.3 4.5.8 6.3 2.2 2.6 3 3.8 6.2 3.8 9.7m204.2-16.7c-10.5 0-18.3 8.2-18.3 19.8 0 11.5 7.8 19.8 18.3 19.8 9.1 0 15.8-5 17.6-13.3l-9.6.4c-1 3.3-4.3 5.8-7.8 5.5-1.7 0-8-.5-9-10.3h27.1c.3-5.1-1.2-9.8-3.8-14.1-3.2-5.1-8.7-7.8-14.5-7.8m-8.5 14.9c.7-4 4.2-7.3 8.5-7.3h.2c4 0 7.5 3.3 7.5 7.5zm-97.2-6.7h3.8l-5 21.8-6.3-29.1h-9.8l-6.3 29.5-5.2-22.3h3.7v-7.2h-15l-.1 7.2h3.3l8.3 30.4h10l6.1-26.1 6.2 26.1h10.1l8-30.3h3.2v-7.2h-15zm71.6-1.3v-6h-12.8V47h3.8v23.1h-3.8v7.3h17.6v-7.3h-4.5V55.6c.2-4.5 4.3-8.1 9-7.8 1.5 0 3 .2 4.5.5v-8.8c-1.5-.3-2.8-.5-4.3-.5-4.2.1-6.9 2.1-9.5 6.8" class="st0"/></svg>